<?xml version="1.0" encoding="UTF-8" standalone="no" ?>
<!DOCTYPE svg PUBLIC "-//W3C//DTD SVG 1.1//EN" "http://www.w3.org/Graphics/SVG/1.1/DTD/svg11.dtd">
<svg xmlns="http://www.w3.org/2000/svg" xmlns:xlink="http://www.w3.org/1999/xlink" version="1.1" width="1200" height="628" viewBox="0 0 1200 628" xml:space="preserve">
<desc>Created with Fabric.js 5.3.0</desc>
<defs>
</defs>
<g transform="matrix(0.6697974384 0 0 0.6697974384 187.2724505068 210.2663002253)" id="9GWcJLfcI2sALsC0rI_uU"  >
<g style=""   >
		<g transform="matrix(0.3624292141 0 0 2.2178194511 0 -2.9440635857)" id="5Z2gfwyyBni3IgJfon7SD"  >
<path style="stroke: rgb(135,251,174); stroke-width: 0; stroke-dasharray: none; stroke-linecap: butt; stroke-dashoffset: 0; stroke-linejoin: miter; stroke-miterlimit: 4; fill: rgb(215,38,61); fill-rule: nonzero; opacity: 1;"  transform=" translate(0, 0)" d="M 573.466 -139.98756 L 856.0960299999999 -139.98756 L -839.68415 139.98754999999997 L -856.09603 136.80164999999997 z" stroke-linecap="round" />
</g>
		<g transform="matrix(0.3624292141 0 0 2.2178194511 -150.6759975236 -2.9440643675)" id="eWnsXnyh2uu_aiSXUzII7"  >
<path style="stroke: rgb(135,251,174); stroke-width: 0; stroke-dasharray: none; stroke-linecap: butt; stroke-dashoffset: 0; stroke-linejoin: miter; stroke-miterlimit: 4; fill: rgb(215,38,61); fill-rule: nonzero; opacity: 1;"  transform=" translate(0, 0)" d="M 141.31502 -139.98756 L 423.94505 -139.98756 L -423.94504 139.98754999999997 L -423.94504 139.98754999999997 z" stroke-linecap="round" />
</g>
		<g transform="matrix(0.3624292141 0 0 2.2178194511 -48.2426178697 -6.4769397355)" id="7Rhv9v5oyrI4TnxG0hzwZ"  >
<path style="stroke: rgb(135,251,174); stroke-width: 0; stroke-dasharray: none; stroke-linecap: butt; stroke-dashoffset: 0; stroke-linejoin: miter; stroke-miterlimit: 4; fill: rgb(46,41,78); fill-rule: nonzero; opacity: 1;"  transform=" translate(0, 0)" d="M 423.94505 -138.39461 L 706.57508 -138.39461 L -706.57507 138.39460000000003 L -706.57507 138.39460000000003 z" stroke-linecap="round" />
</g>
		<g transform="matrix(0.3624292141 0 0 2.2178194511 -201.8926873506 0.0000015608)" id="MUIwbcVU5c7FaJ0m3KA2D"  >
<path style="stroke: rgb(135,251,174); stroke-width: 0; stroke-dasharray: none; stroke-linecap: butt; stroke-dashoffset: 0; stroke-linejoin: miter; stroke-miterlimit: 4; fill: rgb(46,41,78); fill-rule: nonzero; opacity: 1;"  transform=" translate(0, 0)" d="M 0 -141.31501 L 282.63003 -141.31501 L -282.63003 141.31501999999998 L -282.63003 141.31501999999998 z" stroke-linecap="round" />
</g>
		<g transform="matrix(0.3624292141 0 0 2.2178194511 -102.4333795307 0)" id="DuR0GpjEtRu0vGbK58fzi"  >
<path style="stroke: rgb(135,251,174); stroke-width: 0; stroke-dasharray: none; stroke-linecap: butt; stroke-dashoffset: 0; stroke-linejoin: miter; stroke-miterlimit: 4; fill: rgb(244,96,54); fill-rule: nonzero; opacity: 1;"  transform=" translate(0, 0)" d="M 290.83597 -141.31502 L 573.4659999999999 -141.31502 L -573.4660000000001 141.31500999999997 L -573.4660000000001 141.31500999999997 z" stroke-linecap="round" />
</g>
		<g transform="matrix(0.3624292141 0 0 2.2178194511 -253.1093771776 0.0000015608)" id="63iFc9QHB9ElTPtn4M_I1"  >
<path style="stroke: rgb(135,251,174); stroke-width: 0; stroke-dasharray: none; stroke-linecap: butt; stroke-dashoffset: 0; stroke-linejoin: miter; stroke-miterlimit: 4; fill: rgb(244,96,54); fill-rule: nonzero; opacity: 1;"  transform=" translate(0, 0)" d="M -141.31501 -141.31501 L 141.31501999999998 -141.31501 L -141.31501 141.31501999999998 z" stroke-linecap="round" />
</g>
</g>
</g>
<g transform="matrix(-0.6697974384 0 0 0.6697974384 1025.4602521742 210.2663002219)" id="YrwFlt3_zD_Recjf4RcVv"  >
<g style=""   >
		<g transform="matrix(0.3624292141 0 0 2.2178194511 0 -2.9440635857)" id="_wXsASdVocJwHVGtec3VA"  >
<path style="stroke: rgb(135,251,174); stroke-width: 0; stroke-dasharray: none; stroke-linecap: butt; stroke-dashoffset: 0; stroke-linejoin: miter; stroke-miterlimit: 4; fill: rgb(215,38,61); fill-rule: nonzero; opacity: 1;"  transform=" translate(0, 0.000005)" d="M 573.466 -139.98756 L 856.0960299999999 -139.98756 L -839.68415 139.98754999999997 L -856.09603 136.80164999999997 z" stroke-linecap="round" />
</g>
		<g transform="matrix(0.3624292141 0 0 2.2178194511 -150.6759975236 -2.9440643675)" id="0nSCwdyhtN4EQHC7OvsIW"  >
<path style="stroke: rgb(135,251,174); stroke-width: 0; stroke-dasharray: none; stroke-linecap: butt; stroke-dashoffset: 0; stroke-linejoin: miter; stroke-miterlimit: 4; fill: rgb(215,38,61); fill-rule: nonzero; opacity: 1;"  transform=" translate(-0.000005, 0.000005)" d="M 141.31502 -139.98756 L 423.94505 -139.98756 L -423.94504 139.98754999999997 L -423.94504 139.98754999999997 z" stroke-linecap="round" />
</g>
		<g transform="matrix(0.3624292141 0 0 2.2178194511 -48.2426178697 -6.4769397355)" id="I7Tn4AybUn9KFYAU9xoUk"  >
<path style="stroke: rgb(135,251,174); stroke-width: 0; stroke-dasharray: none; stroke-linecap: butt; stroke-dashoffset: 0; stroke-linejoin: miter; stroke-miterlimit: 4; fill: rgb(46,41,78); fill-rule: nonzero; opacity: 1;"  transform=" translate(-0.000005, 0.000005)" d="M 423.94505 -138.39461 L 706.57508 -138.39461 L -706.57507 138.39460000000003 L -706.57507 138.39460000000003 z" stroke-linecap="round" />
</g>
		<g transform="matrix(0.3624292141 0 0 2.2178194511 -201.8926873506 0.0000015608)" id="kSFR6z7kQRG9MFZTnQJJP"  >
<path style="stroke: rgb(135,251,174); stroke-width: 0; stroke-dasharray: none; stroke-linecap: butt; stroke-dashoffset: 0; stroke-linejoin: miter; stroke-miterlimit: 4; fill: rgb(46,41,78); fill-rule: nonzero; opacity: 1;"  transform=" translate(0, -0.000005)" d="M 0 -141.31501 L 282.63003 -141.31501 L -282.63003 141.31501999999998 L -282.63003 141.31501999999998 z" stroke-linecap="round" />
</g>
		<g transform="matrix(0.3624292141 0 0 2.2178194511 -102.4333795307 0)" id="UBLMpXdSV3Cmk3ECTPRgn"  >
<path style="stroke: rgb(135,251,174); stroke-width: 0; stroke-dasharray: none; stroke-linecap: butt; stroke-dashoffset: 0; stroke-linejoin: miter; stroke-miterlimit: 4; fill: rgb(244,96,54); fill-rule: nonzero; opacity: 1;"  transform=" translate(0, 0.000005)" d="M 290.83597 -141.31502 L 573.4659999999999 -141.31502 L -573.4660000000001 141.31500999999997 L -573.4660000000001 141.31500999999997 z" stroke-linecap="round" />
</g>
		<g transform="matrix(0.3624292141 0 0 2.2178194511 -253.1093771776 0.0000015608)" id="bIpyEd7WFHPi58kKQKP7D"  >
<path style="stroke: rgb(135,251,174); stroke-width: 0; stroke-dasharray: none; stroke-linecap: butt; stroke-dashoffset: 0; stroke-linejoin: miter; stroke-miterlimit: 4; fill: rgb(244,96,54); fill-rule: nonzero; opacity: 1;"  transform=" translate(-0.000005, -0.000005)" d="M -141.31501 -141.31501 L 141.31501999999998 -141.31501 L -141.31501 141.31501999999998 z" stroke-linecap="round" />
</g>
</g>
</g>
<g transform="matrix(1 0 0 1 169.1991895568 33.6776211624)" id="5yyXntEszTJOPBQX_c7TZ"  >
<g style=""   >
		<g transform="matrix(0.7589904264 0 0 0.800000012 -126.49840693 0)" id="d4s3zfLSvAJ6LJzgh3wdP"  >
<path style="stroke: rgb(4,35,7); stroke-width: 0; stroke-dasharray: none; stroke-linecap: butt; stroke-dashoffset: 0; stroke-linejoin: miter; stroke-miterlimit: 4; fill: rgb(166,18,37); fill-rule: nonzero; opacity: 1;"  transform=" translate(-83.3333333333, -41.6666666667)" d="M 83.33333 83.33333 C 37.333330000000004 83.33333 0 46.00000000000001 0 0 L 166.66667 0 C 166.66667 46 129.33334000000002 83.33333 83.33334 83.33333 z" stroke-linecap="round" />
</g>
		<g transform="matrix(0.7589904264 0 0 0.800000012 -2e-9 0)" id="KIsJNkT2I_M4z8oH5pAPh"  >
<path style="stroke: rgb(4,35,7); stroke-width: 0; stroke-dasharray: none; stroke-linecap: butt; stroke-dashoffset: 0; stroke-linejoin: miter; stroke-miterlimit: 4; fill: rgb(24,20,46); fill-rule: nonzero; opacity: 1;"  transform=" translate(-83.333335, -41.666665)" d="M 83.33333 83.33333 C 37.333330000000004 83.33333 0 46.00000000000001 0 0 L 166.66667 0 C 166.66667 46 129.33334000000002 83.33333 83.33334 83.33333 z" stroke-linecap="round" />
</g>
		<g transform="matrix(0.7589904264 0 0 0.800000012 126.498406928 0)" id="-f-4AkzK-L8ElSXuEtsdN"  >
<path style="stroke: rgb(4,35,7); stroke-width: 0; stroke-dasharray: none; stroke-linecap: butt; stroke-dashoffset: 0; stroke-linejoin: miter; stroke-miterlimit: 4; fill: rgb(189,60,23); fill-rule: nonzero; opacity: 1;"  transform=" translate(-83.333335, -41.666665)" d="M 83.33333 83.33333 C 37.333330000000004 83.33333 0 46.00000000000001 0 0 L 166.66667 0 C 166.66667 46 129.33334000000002 83.33333 83.33334 83.33333 z" stroke-linecap="round" />
</g>
</g>
</g>
<g transform="matrix(1 0 0 1 548.6944103428 33.6776211624)" id="EhV-752_O-dZKjTbkwz5H"  >
<g style=""   >
		<g transform="matrix(0.7589904264 0 0 0.800000012 -126.49840693 0)" id="qIOPNvEqRkljQzM3i5bhr"  >
<path style="stroke: rgb(4,35,7); stroke-width: 0; stroke-dasharray: none; stroke-linecap: butt; stroke-dashoffset: 0; stroke-linejoin: miter; stroke-miterlimit: 4; fill: rgb(166,18,37); fill-rule: nonzero; opacity: 1;"  transform=" translate(-83.333335, -41.666665)" d="M 83.33333 83.33333 C 37.333330000000004 83.33333 0 46.00000000000001 0 0 L 166.66667 0 C 166.66667 46 129.33334000000002 83.33333 83.33334 83.33333 z" stroke-linecap="round" />
</g>
		<g transform="matrix(0.7589904264 0 0 0.800000012 -2e-9 0)" id="YOgX3dTU3WDMZqyna-VCA"  >
<path style="stroke: rgb(4,35,7); stroke-width: 0; stroke-dasharray: none; stroke-linecap: butt; stroke-dashoffset: 0; stroke-linejoin: miter; stroke-miterlimit: 4; fill: rgb(24,20,46); fill-rule: nonzero; opacity: 1;"  transform=" translate(-83.333335, -41.666665)" d="M 83.33333 83.33333 C 37.333330000000004 83.33333 0 46.00000000000001 0 0 L 166.66667 0 C 166.66667 46 129.33334000000002 83.33333 83.33334 83.33333 z" stroke-linecap="round" />
</g>
		<g transform="matrix(0.7589904264 0 0 0.800000012 126.498406928 0)" id="NcOuFyX90OxZ0gy_QXqqz"  >
<path style="stroke: rgb(4,35,7); stroke-width: 0; stroke-dasharray: none; stroke-linecap: butt; stroke-dashoffset: 0; stroke-linejoin: miter; stroke-miterlimit: 4; fill: rgb(189,60,23); fill-rule: nonzero; opacity: 1;"  transform=" translate(-83.333335, -41.666665)" d="M 83.33333 83.33333 C 37.333330000000004 83.33333 0 46.00000000000001 0 0 L 166.66667 0 C 166.66667 46 129.33334000000002 83.33333 83.33334 83.33333 z" stroke-linecap="round" />
</g>
</g>
</g>
<g transform="matrix(1 0 0 1 919.0566392737 33.6776211624)" id="44u_4kMLGbWZZpPn3v6FU"  >
<g style=""   >
		<g transform="matrix(0.7589904264 0 0 0.800000012 -126.49840693 0)" id="_RukBpWcwaqkxfzhhjOmo"  >
<path style="stroke: rgb(4,35,7); stroke-width: 0; stroke-dasharray: none; stroke-linecap: butt; stroke-dashoffset: 0; stroke-linejoin: miter; stroke-miterlimit: 4; fill: rgb(166,18,37); fill-rule: nonzero; opacity: 1;"  transform=" translate(-83.333335, -41.666665)" d="M 83.33333 83.33333 C 37.333330000000004 83.33333 0 46.00000000000001 0 0 L 166.66667 0 C 166.66667 46 129.33334000000002 83.33333 83.33334 83.33333 z" stroke-linecap="round" />
</g>
		<g transform="matrix(0.7589904264 0 0 0.800000012 -2e-9 0)" id="Bgbfct4ipkkYB9afiOZMN"  >
<path style="stroke: rgb(4,35,7); stroke-width: 0; stroke-dasharray: none; stroke-linecap: butt; stroke-dashoffset: 0; stroke-linejoin: miter; stroke-miterlimit: 4; fill: rgb(24,20,46); fill-rule: nonzero; opacity: 1;"  transform=" translate(-83.333335, -41.666665)" d="M 83.33333 83.33333 C 37.333330000000004 83.33333 0 46.00000000000001 0 0 L 166.66667 0 C 166.66667 46 129.33334000000002 83.33333 83.33334 83.33333 z" stroke-linecap="round" />
</g>
		<g transform="matrix(0.7589904264 0 0 0.800000012 126.498406928 0)" id="0Cba97SPiDMd5-8UQpw8q"  >
<path style="stroke: rgb(4,35,7); stroke-width: 0; stroke-dasharray: none; stroke-linecap: butt; stroke-dashoffset: 0; stroke-linejoin: miter; stroke-miterlimit: 4; fill: rgb(189,60,23); fill-rule: nonzero; opacity: 1;"  transform=" translate(-83.333335, -41.666665)" d="M 83.33333 83.33333 C 37.333330000000004 83.33333 0 46.00000000000001 0 0 L 166.66667 0 C 166.66667 46 129.33334000000002 83.33333 83.33334 83.33333 z" stroke-linecap="round" />
</g>
</g>
</g>
<g transform="matrix(1 0 0 1 1298.5518600597 34.1666658333)" id="YR53yM_udtNYjReEcE0KW"  >
<g style=""   >
		<g transform="matrix(0.7589904264 0 0 0.800000012 -126.49840693 0)" id="iEq5fEYrdXj9P3i4_4rWr"  >
<path style="stroke: rgb(4,35,7); stroke-width: 0; stroke-dasharray: none; stroke-linecap: butt; stroke-dashoffset: 0; stroke-linejoin: miter; stroke-miterlimit: 4; fill: rgb(166,18,37); fill-rule: nonzero; opacity: 1;"  transform=" translate(-83.333335, -41.666665)" d="M 83.33333 83.33333 C 37.333330000000004 83.33333 0 46.00000000000001 0 0 L 166.66667 0 C 166.66667 46 129.33334000000002 83.33333 83.33334 83.33333 z" stroke-linecap="round" />
</g>
		<g transform="matrix(0.7589904264 0 0 0.800000012 -2e-9 0)" id="qn2jM7dBLaZcEOoGa2xBF"  >
<path style="stroke: rgb(4,35,7); stroke-width: 0; stroke-dasharray: none; stroke-linecap: butt; stroke-dashoffset: 0; stroke-linejoin: miter; stroke-miterlimit: 4; fill: rgb(24,20,46); fill-rule: nonzero; opacity: 1;"  transform=" translate(-83.333335, -41.666665)" d="M 83.33333 83.33333 C 37.333330000000004 83.33333 0 46.00000000000001 0 0 L 166.66667 0 C 166.66667 46 129.33334000000002 83.33333 83.33334 83.33333 z" stroke-linecap="round" />
</g>
		<g transform="matrix(0.7589904264 0 0 0.800000012 126.498406928 0)" id="fkS1sUjXtV7tRyAT5mJgW"  >
<path style="stroke: rgb(4,35,7); stroke-width: 0; stroke-dasharray: none; stroke-linecap: butt; stroke-dashoffset: 0; stroke-linejoin: miter; stroke-miterlimit: 4; fill: rgb(189,60,23); fill-rule: nonzero; opacity: 1;"  transform=" translate(-83.333335, -41.666665)" d="M 83.33333 83.33333 C 37.333330000000004 83.33333 0 46.00000000000001 0 0 L 166.66667 0 C 166.66667 46 129.33334000000002 83.33333 83.33334 83.33333 z" stroke-linecap="round" />
</g>
</g>
</g>
</svg>